<svg xmlns="http://www.w3.org/2000/svg" viewBox="0 0 145 90" fill="#fff" xmlns:v="https://vecta.io/nano"><path d="M0 72.9V62.4c9.6 0 17.4-7.8 17.4-17.4S9.6 27.6 0 27.6V17c15.4 0 28 12.5 28 28S15.4 72.9 0 72.9zm0-17.1v-4.1a6.7 6.7 0 1 0 0-13.4v-4.1c6 0 10.8 4.8 10.8 10.8S6 55.8 0 55.8zM145 17v10.6c-9.6 0-17.4 7.8-17.4 17.4s7.8 17.4 17.4 17.4V73c-15.4 0-27.9-12.5-27.9-27.9S129.6 17 145 17zm0 17.2v4.1a6.7 6.7 0 1 0 0 13.4v4.1c-6 0-10.8-4.8-10.8-10.8S139 34.2 145 34.2zM72.5 45L28 80.3C38.3 72 45 59.3 45 45S38.3 18 28 9.7L72.5 45z"/><path d="M72.5,45l44.6,35.3C106.7,72,100,59.3,100,45s6.7-27,17.1-35.3L72.5,45z"/></svg>